<svg xmlns="http://www.w3.org/2000/svg" width="330.84" height="203.543" viewBox="0 0 330.84 203.543">
  <g id="Group_2" data-name="Group 2" transform="translate(-1141.161 692.632)">
    <g id="taco" transform="translate(1141.161 -791.133)">
      <path id="Path_1" data-name="Path 1" d="M266.835,171.1c-61.311,1.227-110.03,52-110.03,113.251l168.5,38.526h16.52a39.624,39.624,0,0,0,39.648-39.6h0A112.272,112.272,0,0,0,266.835,171.1Z" transform="translate(-55.482 -25.68)" fill="#9e7325"/>
      <path id="Path_2" data-name="Path 2" d="M292.045,168.573a19.865,19.865,0,0,0-1.329-3.6,20.2,20.2,0,0,0-2.133-3.295q-.618-.782-1.3-1.493a19.152,19.152,0,0,0-1.458-1.307,19.715,19.715,0,0,0-3.2-2.122,17.973,17.973,0,0,0-7.315-1.915,9.7,9.7,0,0,1-9.36-9.072,18.268,18.268,0,0,0-.655-3.761,18.038,18.038,0,0,0-1.491-3.495,18.442,18.442,0,0,0-5.144-5.841,17.766,17.766,0,0,0-14.706-3.1,9.842,9.842,0,0,1-11.547-6.157,17.518,17.518,0,0,0-4.187-6.342,18.743,18.743,0,0,0-14.516-4.989,17.515,17.515,0,0,0-7.216,2.423,9.927,9.927,0,0,1-12.943-2.154,17.574,17.574,0,0,0-2.739-2.691,18.762,18.762,0,0,0-3.287-1.967q-.879-.412-1.807-.742a17.447,17.447,0,0,0-1.9-.5,17.807,17.807,0,0,0-7.965,0,17.3,17.3,0,0,0-1.9.5q-.927.33-1.807.742a18.751,18.751,0,0,0-3.288,1.967,17.574,17.574,0,0,0-2.739,2.691,9.928,9.928,0,0,1-12.944,2.153,17.512,17.512,0,0,0-7.215-2.423,18.74,18.74,0,0,0-14.516,4.99,17.52,17.52,0,0,0-4.187,6.342,9.843,9.843,0,0,1-11.548,6.157,17.764,17.764,0,0,0-14.7,3.1,18.458,18.458,0,0,0-5.145,5.841,18.085,18.085,0,0,0-1.491,3.5,18.267,18.267,0,0,0-.655,3.761,9.7,9.7,0,0,1-9.36,9.072,17.97,17.97,0,0,0-7.314,1.915,19.83,19.83,0,0,0-3.2,2.122,19.03,19.03,0,0,0-1.458,1.307q-.678.709-1.3,1.493a20.15,20.15,0,0,0-2.132,3.295,19.816,19.816,0,0,0-1.329,3.6,17.231,17.231,0,0,0-.256,7.533,9.279,9.279,0,0,1,.151,1.827,9.4,9.4,0,0,1-.161,1.788,9.122,9.122,0,0,1-1.281,3.232,9.416,9.416,0,0,1-5.591,4.176,18.218,18.218,0,0,0-6.647,3.544,19.648,19.648,0,0,0-2.622,2.78q-.593.765-1.118,1.593c-.335.558-.64,1.139-.923,1.736a20.593,20.593,0,0,0-1.325,3.67,18.678,18.678,0,0,0-.488,3.792A16.934,16.934,0,0,0,47.65,208a18.4,18.4,0,0,0,1.122,3.628,9.773,9.773,0,0,1,.764,3.535l129.445,42.523,88.107-61.457c22.468-4.669,25.214-20.128,25.214-20.128A17.254,17.254,0,0,0,292.045,168.573Z" transform="translate(-16.755 -2.654)" fill="#c4c65a"/>
      <path id="Path_3" data-name="Path 3" d="M339.162,239.857c-9.344,7.593-52.341,32.714-88.107,61.457l93.815,30.818a11.365,11.365,0,0,1,5.546-4.5,10.862,10.862,0,0,1,3.459-.728,10.994,10.994,0,0,1,3.681.393,15.374,15.374,0,0,0,7.921,0,17.91,17.91,0,0,0,3.9-1.553,20.012,20.012,0,0,0,3.529-2.536,17.694,17.694,0,0,0,4.712-7.037,19.549,19.549,0,0,0,.582-1.948,17.478,17.478,0,0,0,.289-1.995,17.035,17.035,0,0,0,.06-1.966,15.669,15.669,0,0,0-.233-1.959,12.132,12.132,0,0,1-.059-3.693,9.544,9.544,0,0,1,.411-1.727,11.437,11.437,0,0,1,.641-1.639,10.555,10.555,0,0,1,.92-1.5,9.514,9.514,0,0,1,1.124-1.374,12.307,12.307,0,0,1,2.977-2.194,16.712,16.712,0,0,0,1.7-1,16.443,16.443,0,0,0,1.526-1.244,18.773,18.773,0,0,0,1.412-1.444,17.91,17.91,0,0,0,1.2-1.649,17.4,17.4,0,0,0,1.036-1.812c.289-.635.552-1.292.786-1.968a17.689,17.689,0,0,0,.9-4.259A17.371,17.371,0,0,0,391.6,274.4a17.883,17.883,0,0,0-2.042-3.5,16.812,16.812,0,0,0-2.8-2.767,11.284,11.284,0,0,1-4.559-9.342,9.776,9.776,0,0,1,.764-3.536,18.426,18.426,0,0,0,1.122-3.628,16.931,16.931,0,0,0,.291-3.759,18.673,18.673,0,0,0-.488-3.792,20.66,20.66,0,0,0-1.325-3.67c-.282-.6-.587-1.178-.923-1.736s-.722-1.083-1.118-1.593a19.645,19.645,0,0,0-2.622-2.78q-.325-.272-.661-.529a21.126,21.126,0,0,0-9.971-4.2C358.116,228.424,350.423,230.706,339.162,239.857Z" transform="translate(-88.831 -46.278)" fill="#915729"/>
      <g id="Group_1" data-name="Group 1" transform="translate(4.845 126.92)">
        <ellipse id="Ellipse_1" data-name="Ellipse 1" cx="39.649" cy="39.597" rx="39.649" ry="39.597" transform="translate(126.87)" fill="#c95a3a"/>
        <ellipse id="Ellipse_2" data-name="Ellipse 2" cx="39.649" cy="39.597" rx="39.649" ry="39.597" transform="translate(39.65 11.224)" fill="#c95a3a"/>
        <ellipse id="Ellipse_3" data-name="Ellipse 3" cx="39.649" cy="39.597" rx="39.649" ry="39.597" transform="translate(0 67.919)" fill="#c95a3a"/>
        <ellipse id="Ellipse_4" data-name="Ellipse 4" cx="39.649" cy="39.597" rx="39.649" ry="39.597" transform="translate(188.987 58.084)" fill="#c95a3a"/>
      </g>
      <path id="Path_4" data-name="Path 4" d="M334.683,191.124a9.527,9.527,0,0,1,11.675,11.661l-3.7,13.8-3.7,13.8A9.537,9.537,0,0,1,323,234.658l-10.116-10.1-10.116-10.1a9.517,9.517,0,0,1,4.273-15.929l13.819-3.7Z" transform="translate(-106.14 -32.654)" fill="#a7a951"/>
      <path id="Path_5" data-name="Path 5" d="M329.024,215.994l3.7-13.8a9.412,9.412,0,0,0-2.374-9.091l-9.49,2.539-13.819,3.7a9.517,9.517,0,0,0-4.273,15.929l10.116,10.1,9.311,9.3a9.4,9.4,0,0,0,3.122-4.875Z" transform="translate(-106.139 -33.472)" fill="#d1d274"/>
      <path id="Path_6" data-name="Path 6" d="M181.605,148.109c3.669-4.783,12.842-4.783,16.511,0l7.153,9.326,7.153,9.326c3.669,4.783-.918,10.762-8.255,10.762H175.553c-7.338,0-11.924-5.979-8.255-10.762l7.153-9.326Z" transform="translate(-58.738 -16.283)" fill="#a7a951"/>
      <path id="Path_7" data-name="Path 7" d="M194.633,167.5l-7.153-9.326a10.311,10.311,0,0,0-8.115-3.581l-4.912,6.4-7.153,9.326c-3.669,4.783.918,10.762,8.255,10.762h27.475a5.694,5.694,0,0,0-1.244-4.26Z" transform="translate(-58.739 -19.847)" fill="#d1d274"/>
      <path id="Path_8" data-name="Path 8" d="M36.537,230.027c-.792-5.973,5.694-12.452,11.675-11.661l11.66,1.542,11.66,1.542c5.981.791,6.97,8.258,1.781,13.44L63.2,244.994,53.081,255.1c-5.189,5.183-12.665,4.194-13.457-1.78l-1.544-11.646Z" transform="translate(-12.905 -42.388)" fill="#a7a951"/>
      <path id="Path_9" data-name="Path 9" d="M57.255,238.65l-11.66-1.542a10.311,10.311,0,0,0-8.273,3.2l1.06,8,1.544,11.646c.792,5.973,8.268,6.962,13.457,1.78l10.116-10.1,9.311-9.3a5.709,5.709,0,0,0-3.9-2.134Z" transform="translate(-13.206 -49.02)" fill="#d1d274"/>
      <path id="Path_10" data-name="Path 10" d="M34.088,284.352c0-61.249,48.719-112.024,110.03-113.251a112.272,112.272,0,0,1,114.64,112.177h0a39.624,39.624,0,0,0,39.648,39.6H72.661a38.55,38.55,0,0,1-38.573-38.526Z" transform="translate(-12.061 -25.68)" fill="#ebd37a"/>
      <path id="Path_11" data-name="Path 11" d="M259.262,353H34.464a38.557,38.557,0,0,0,38.33,34.247H298.54A39.632,39.632,0,0,1,259.262,353Z" transform="translate(-12.194 -90.049)" fill="#d9b43a"/>
      <path id="Path_12" data-name="Path 12" d="M295.966,174.287a4.846,4.846,0,0,0-6.8,6.9c1.035,1.02,2.039,2.061,3.027,3.115-.275-.231-.555-.455-.836-.669a25.993,25.993,0,0,0-12.311-5.158c-.1-.013-.205-.021-.309-.034a19.652,19.652,0,0,0,1.522-3.847c.024-.1.045-.2.063-.3a22.064,22.064,0,0,0-.337-9.605,24.8,24.8,0,0,0-1.652-4.484l-.052-.1a25.189,25.189,0,0,0-2.648-4.1c-.5-.636-1.04-1.253-1.6-1.833q-.036-.039-.074-.076a23.765,23.765,0,0,0-1.834-1.645,24.658,24.658,0,0,0-3.988-2.642l-.1-.053a22.741,22.741,0,0,0-9.309-2.422,4.855,4.855,0,0,1-4.694-4.555,23.223,23.223,0,0,0-.828-4.756c-.007-.025-.014-.05-.022-.075a22.789,22.789,0,0,0-1.856-4.382,23.222,23.222,0,0,0-6.468-7.4l-.109-.081a22.6,22.6,0,0,0-18.661-3.887,4.984,4.984,0,0,1-5.9-3.151,22.244,22.244,0,0,0-5.335-8.1c-.033-.032-.067-.064-.1-.1a23.579,23.579,0,0,0-18.222-6.254l-.081.008a22.527,22.527,0,0,0-9.271,3.126,5.068,5.068,0,0,1-6.642-1.112,22.43,22.43,0,0,0-3.5-3.432l-.079-.061a23.634,23.634,0,0,0-4.137-2.477c-.725-.339-1.479-.649-2.242-.92l-.08-.028a22.4,22.4,0,0,0-2.446-.649,26.416,26.416,0,0,0-4.877-.553c-.067,0-.134,0-.2,0a26.562,26.562,0,0,0-4.9.559,22.194,22.194,0,0,0-2.422.645l-.078.027c-.764.271-1.519.582-2.242.921a23.638,23.638,0,0,0-4.136,2.476l-.081.063a22.32,22.32,0,0,0-3.46,3.387,5.1,5.1,0,0,1-6.733,1.125,22.46,22.46,0,0,0-9.218-3.094l-.081-.008a23.577,23.577,0,0,0-18.223,6.256c-.034.031-.067.063-.1.094a22.259,22.259,0,0,0-5.346,8.128,4.976,4.976,0,0,1-5.89,3.122,22.6,22.6,0,0,0-18.659,3.888l-.109.081a23.209,23.209,0,0,0-6.468,7.4,4.857,4.857,0,0,0-.334.8,44.7,44.7,0,0,0-34.3,36.5l-4.248-.562A15.167,15.167,0,0,0,23.5,174.985a15.136,15.136,0,0,0-4.668,12.424l1.3,9.845a44.394,44.394,0,0,0-1.215,73.535A43.481,43.481,0,0,0,60.6,302.044H245.637a4.846,4.846,0,1,0,0-9.693H60.6a33.741,33.741,0,0,1-33.726-33.68c0-58.613,47.229-107.244,105.281-108.406A107.426,107.426,0,0,1,241.852,257.6a44.239,44.239,0,0,0,11.407,29.678,4.87,4.87,0,0,0,.664.726c.019.017.041.032.061.049A44.472,44.472,0,0,0,330.84,257.6,116.142,116.142,0,0,0,295.966,174.287Zm-10.488,17.058q.228.173.447.357a14.876,14.876,0,0,1,1.94,2.065c.291.377.569.77.823,1.169.227.381.445.795.664,1.257a15.943,15.943,0,0,1,1.006,2.773,13.822,13.822,0,0,1,.346,2.728,12.1,12.1,0,0,1-.2,2.707,13.548,13.548,0,0,1-.819,2.656,14.534,14.534,0,0,0-1.154,5.193,15.2,15.2,0,0,0,.628,5.032,16.191,16.191,0,0,0,5.832,8.427,12,12,0,0,1,1.923,1.9,13.156,13.156,0,0,1,1.408,2.43,12.632,12.632,0,0,1,.914,5.942,13.438,13.438,0,0,1-.62,3.1c-.014.035-.026.07-.038.106-.178.513-.378,1.018-.6,1.5a14.541,14.541,0,0,1-1.533,2.375,13.8,13.8,0,0,1-.989,1.008,11.814,11.814,0,0,1-1.02.839,11.98,11.98,0,0,1-1.161.678,17.022,17.022,0,0,0-4.148,3.041l-.059.058a14.431,14.431,0,0,0-1.655,2.013,15.143,15.143,0,0,0-1.277,2.107,15.9,15.9,0,0,0-.9,2.27,14.345,14.345,0,0,0-.61,2.573l-.012.089a16.859,16.859,0,0,0,.1,5.14,11.011,11.011,0,0,1,.16,1.3,12.113,12.113,0,0,1-.043,1.341,12.794,12.794,0,0,1-.193,1.365c-.114.459-.255.927-.434,1.429a12.841,12.841,0,0,1-3.408,5.048,15.09,15.09,0,0,1-2.546,1.836,13.286,13.286,0,0,1-2.735,1.11l-.1.026a10.519,10.519,0,0,1-5.386.024,16.432,16.432,0,0,0-10.082.442l-.084.031a16.53,16.53,0,0,0-1.891.861,34.558,34.558,0,0,1-5.656-12.817c.026-.012.053-.019.079-.032A44.4,44.4,0,0,0,264.44,192.7a38.419,38.419,0,0,0,6.64-4.606,25.363,25.363,0,0,1,6.763,0A16.158,16.158,0,0,1,285.478,191.345Zm-187.7-59.726.108.026a14.63,14.63,0,0,0,17.153-9.174,12.587,12.587,0,0,1,2.99-4.537,13.4,13.4,0,0,1,4.875-2.952c.052-.017.1-.034.155-.053a13.491,13.491,0,0,1,5.687-.674,12.646,12.646,0,0,1,5.121,1.716,14.786,14.786,0,0,0,19.244-3.194,12.788,12.788,0,0,1,1.942-1.921,14.013,14.013,0,0,1,2.4-1.427c.428-.2.875-.385,1.33-.549a13.379,13.379,0,0,1,1.31-.339,13.036,13.036,0,0,1,5.951-.006,13.18,13.18,0,0,1,1.336.344c.454.163.9.348,1.33.548a13.971,13.971,0,0,1,2.4,1.427,12.9,12.9,0,0,1,1.979,1.966A14.754,14.754,0,0,0,192.237,116a12.716,12.716,0,0,1,5.173-1.749,13.508,13.508,0,0,1,5.688.675l.154.053a13.412,13.412,0,0,1,4.875,2.952,12.567,12.567,0,0,1,2.979,4.51,14.644,14.644,0,0,0,17.162,9.2l.108-.026a12.931,12.931,0,0,1,10.631,2.281,13.648,13.648,0,0,1,3.8,4.292,13.333,13.333,0,0,1,1.084,2.517,13.57,13.57,0,0,1,.474,2.771,14.6,14.6,0,0,0,14,13.546,13.074,13.074,0,0,1,5.292,1.383,14.891,14.891,0,0,1,2.359,1.57c.407.331.752.638,1.053.936.335.352.658.726.958,1.1a15.535,15.535,0,0,1,1.6,2.45,15.263,15.263,0,0,1,1,2.732,12.3,12.3,0,0,1,.2,5.177c-.366,1.173-3.221,9.012-15.091,13.728A44.111,44.111,0,0,0,242.089,181l2.811-10.479a14.373,14.373,0,0,0-17.608-17.6L214.671,156.3a44.5,44.5,0,0,0-69.47-25.714l-1.976-2.576a16.093,16.093,0,0,0-24.2,0l-9.931,12.947a44.135,44.135,0,0,0-21.272-7.508A12.792,12.792,0,0,1,97.774,131.619ZM154.113,142.2l-3.011-3.925A34.811,34.811,0,0,1,205.307,158.8l-5.657,1.514-.052.016A115.751,115.751,0,0,0,154.113,142.2Zm-69.971.783a34.632,34.632,0,0,1,14.479,3.148A116.194,116.194,0,0,0,54.074,172.7l-4.276-.565A34.924,34.924,0,0,1,84.142,142.985Zm-53.79,38.85a5.7,5.7,0,0,1,4.321-1.922l11.145,1.474a118.59,118.59,0,0,0-15.076,22.131l-2.3-17.385A5.663,5.663,0,0,1,30.351,181.835Zm-20.659,52.6a34.822,34.822,0,0,1,11.9-26.158l.321,2.42a10.735,10.735,0,0,0,2.861,6.077A118.476,118.476,0,0,0,17.213,256,34.559,34.559,0,0,1,9.693,234.435ZM131.96,140.576q-5.509.11-10.925.733l5.679-7.4a6.6,6.6,0,0,1,8.82,0l5.229,6.817Q136.389,140.489,131.96,140.576Zm77.485,27.153,20.352-5.447a4.68,4.68,0,0,1,5.741,5.724l-5.783,21.557a118.782,118.782,0,0,0-13.322-15.509Q213.046,170.734,209.445,167.729Zm27.219,32.678a14.517,14.517,0,0,0,.83-2.284l2.078-7.746A34.741,34.741,0,0,1,251.5,254.333,116.047,116.047,0,0,0,236.663,200.406Zm49.682,91.946a34.651,34.651,0,0,1-20.779-6.892,5.949,5.949,0,0,1,1.807.212l.081.023a20.214,20.214,0,0,0,10.372.019,22.8,22.8,0,0,0,4.915-1.932q.1-.049.192-.1a24.8,24.8,0,0,0,4.388-3.155l.068-.063a22.508,22.508,0,0,0,5.966-8.951,24.555,24.555,0,0,0,.726-2.432c.012-.051.023-.1.034-.152a22.5,22.5,0,0,0,.373-2.558,22.118,22.118,0,0,0,.076-2.527c0-.036,0-.072,0-.109a20.548,20.548,0,0,0-.3-2.58,7.244,7.244,0,0,1-.023-2.185,4.6,4.6,0,0,1,.194-.8c.008-.022.014-.044.022-.067a7.525,7.525,0,0,1,.354-.945l.034-.068a5.862,5.862,0,0,1,.5-.806c.028-.04.056-.08.083-.121a4.673,4.673,0,0,1,.525-.646,7.427,7.427,0,0,1,1.76-1.309,21.64,21.64,0,0,0,2.194-1.294l.121-.083a21.578,21.578,0,0,0,1.979-1.61,23.6,23.6,0,0,0,1.78-1.82l.094-.11a22.825,22.825,0,0,0,1.548-2.134,22.112,22.112,0,0,0,1.318-2.32l.041-.087c.344-.755.659-1.542.937-2.341a22.8,22.8,0,0,0,1.155-5.4,24.723,24.723,0,0,0-.142-5.416c-.012-.094-.025-.187-.041-.28a24.7,24.7,0,0,0-1.439-5.031c-.022-.054-.045-.108-.069-.161a22.63,22.63,0,0,0-2.6-4.433c-.024-.032-.048-.063-.074-.094a21.694,21.694,0,0,0-3.611-3.562l-.069-.053A5.961,5.961,0,0,1,299.4,216.5a6.135,6.135,0,0,1-.871-1.723c-.008-.03-.016-.061-.025-.091a6.015,6.015,0,0,1-.286-1.969,5.01,5.01,0,0,1,.38-1.842,23.274,23.274,0,0,0,1.414-4.565,21.807,21.807,0,0,0,.386-4.873,23.514,23.514,0,0,0-.62-4.778l-.017-.072a25.64,25.64,0,0,0-1.639-4.539,24.392,24.392,0,0,0-1.151-2.161l-.057-.094c-.143-.227-.3-.45-.45-.675A106.4,106.4,0,0,1,321.147,257.6,34.817,34.817,0,0,1,286.345,292.352Z"/>
      <circle id="Ellipse_5" data-name="Ellipse 5" cx="4.846" cy="4.846" r="4.846" transform="translate(85.03 194.781)"/>
      <circle id="Ellipse_6" data-name="Ellipse 6" cx="4.846" cy="4.846" r="4.846" transform="translate(61.767 214.166)"/>
      <circle id="Ellipse_7" data-name="Ellipse 7" cx="4.846" cy="4.846" r="4.846" transform="translate(100.538 229.674)"/>
      <circle id="Ellipse_8" data-name="Ellipse 8" cx="4.846" cy="4.846" r="4.846" transform="translate(62.414 190.904)"/>
      <circle id="Ellipse_9" data-name="Ellipse 9" cx="4.846" cy="4.846" r="4.846" transform="translate(120.569 171.518)"/>
      <circle id="Ellipse_10" data-name="Ellipse 10" cx="4.846" cy="4.846" r="4.846" transform="translate(139.954 216.75)"/>
      <circle id="Ellipse_11" data-name="Ellipse 11" cx="4.846" cy="4.846" r="4.846" transform="translate(159.339 184.442)"/>
      <circle id="Ellipse_12" data-name="Ellipse 12" cx="4.846" cy="4.846" r="4.846" transform="translate(204.571 223.212)"/>
    </g>
  </g>
</svg>
